HIERARCHY
ROOT Hips
{
  OFFSET 0 0 0
  CHANNELS 6 Xposition Yposition Zposition Zrotation Xrotation Yrotation
  JOINT Spine
  {
    OFFSET 0 10.1816 0.131521
    CHANNELS 3 Zrotation Xrotation Yrotation
    JOINT Spine1
    {
      OFFSET 0 10.0835 -1.0008
      CHANNELS 3 Zrotation Xrotation Yrotation
      JOINT Spine2
      {
        OFFSET 0 9.10001 -1.37342
        CHANNELS 3 Zrotation Xrotation Yrotation
        JOINT Neck
        {
          OFFSET 0 16.6717 -2.51617
          CHANNELS 3 Zrotation Xrotation Yrotation
          JOINT Head
          {
            OFFSET 0 9.61788 1.68501
            CHANNELS 3 Zrotation Xrotation Yrotation
            End Site
            {
              OFFSET 0 0 0
            }
          }
        }
        JOINT LeftShoulder
        {
          OFFSET 4.57045 10.946 -2.62799
          CHANNELS 3 Zrotation Xrotation Yrotation
          JOINT LeftArm
          {
            OFFSET 10.5924 -0.524583 -2.23212
            CHANNELS 3 Zrotation Xrotation Yrotation
            JOINT LeftForeArm
            {
              OFFSET 27.8415 -8.94286e-05 3.74589e-05
              CHANNELS 3 Zrotation Xrotation Yrotation
              JOINT LeftHand
              {
                OFFSET 28.3288 -1.74407e-05 3.78045e-05
                CHANNELS 3 Zrotation Xrotation Yrotation
                End Site
                {
                  OFFSET 0 0 0
                }
              }
            }
          }
        }
        JOINT RightShoulder
        {
          OFFSET -4.56997 10.9462 -2.62802
          CHANNELS 3 Zrotation Xrotation Yrotation
          JOINT RightArm
          {
            OFFSET -10.5928 -0.524798 -2.2321
            CHANNELS 3 Zrotation Xrotation Yrotation
            JOINT RightForeArm
            {
              OFFSET -27.8415 -3.30792e-05 1.16763e-05
              CHANNELS 3 Zrotation Xrotation Yrotation
              JOINT RightHand
              {
                OFFSET -28.3288 0 5.5816e-05
                CHANNELS 3 Zrotation Xrotation Yrotation
                End Site
                {
                  OFFSET 0 0 0
                }
              }
            }
          }
        }
      }
    }
  }
  JOINT LeftUpLeg
  {
    OFFSET 8.20778 -6.75171 -1.59956
    CHANNELS 3 Zrotation Xrotation Yrotation
    JOINT LeftLeg
    {
      OFFSET 0 -44.3705 0.284643
      CHANNELS 3 Zrotation Xrotation Yrotation
      JOINT LeftFoot
      {
        OFFSET 0 -44.4279 -2.98219
        CHANNELS 3 Zrotation Xrotation Yrotation
        JOINT LeftToeBase
        {
          OFFSET 0 -8.72867 10.7106
          CHANNELS 3 Zrotation Xrotation Yrotation
          End Site
          {
            OFFSET 0 0 0
          }
        }
      }
    }
  }
  JOINT RightUpLeg
  {
    OFFSET -8.2078 -6.75166 -1.59956
    CHANNELS 3 Zrotation Xrotation Yrotation
    JOINT RightLeg
    {
      OFFSET 0 -44.3705 0.286156
      CHANNELS 3 Zrotation Xrotation Yrotation
      JOINT RightFoot
      {
        OFFSET 0 -44.4277 -2.98379
        CHANNELS 3 Zrotation Xrotation Yrotation
        JOINT RightToeBase
        {
          OFFSET 0 -8.72867 10.7106
          CHANNELS 3 Zrotation Xrotation Yrotation
          End Site
          {
            OFFSET 0 0 0
          }
        }
      }
    }
  }
}
MOTION
Frames:	12
Frame Time:	0.0333333
-3.202259 149.146000 -12.617606 1.254820 -4.931656 0.054039 0.0912451 2.86935 1.34356 0.115199 5.74005 2.68769 0.115208 5.74005 2.68768 -3.40877 19.9159 0.689349 2.36461 -5.06529 -1.09768 -17.517 -0.187553 3.78217 -48.7995 43.0399 -12.6475 12.0741 -7.96359 -30.3072 10.1382 26.0526 6.8048 18.0105 -0.115487 -3.63145 51.5526 36.5907 12.2459 -14.9112 -9.95777 29.9219 -6.1018 13.8982 -3.91844 -0.736336 -8.3045 -2.93251 -3.20686 23.7034 -0.900441 2.4936 -6.31289 -1.4537 8.86495e-07 -5.17003e-07 2.83161e-08 -6.15359 -8.49026 -0.217268 4.48411 23.728 -7.19713 2.46439 -8.85911 -3.67774 -1.29114e-06 -2.52699e-06 6.74489e-06  
-3.676680 148.996000 -12.550815 0.597888 -3.779294 0.807090 0.208947 3.02759 1.12626 0.358912 6.05867 2.24606 0.358921 6.05867 2.24607 -4.31981 20.1763 -1.51928 4.0872 -5.06869 -4.10352 -17.2114 -0.193722 3.8184 -50.9 41.0614 -9.69465 12.4558 -8.81712 -32.1971 15.1723 21.7647 4.67858 17.9276 -0.334421 -4.55041 52.0645 36.758 11.3895 -15.1507 -10.0303 29.6929 -9.6256 11.3457 -3.41462 0.568314 -10.333 -1.70887 -3.26184 25.2583 -1.94299 2.49399 -6.60796 -2.23087 8.86495e-07 -5.17003e-07 2.83161e-08 -5.46428 -9.63178 -1.69106 4.63211 23.9358 -6.99046 1.99034 -8.92641 -3.49138 -1.29114e-06 -2.52699e-06 6.74489e-06  
-4.146419 148.694000 -12.716858 -0.205878 -2.284288 0.900401 0.350234 3.28279 0.938192 0.648077 6.57084 1.8608 0.648082 6.57083 1.86082 -4.99595 19.8951 -2.77767 5.19209 -5.38358 -5.87037 -16.1223 -0.232657 4.03109 -53.3438 39.7076 -7.15147 13.0087 -9.25009 -32.2842 18.6336 17.2388 3.70289 17.4851 -0.437451 -5.01667 52.8716 36.3133 9.53556 -15.2474 -10.2705 30.131 -12.1892 9.46621 -3.1611 2.21159 -13.3005 0.962718 -3.13164 27.5643 -3.2046 2.43441 -6.93772 -3.12904 8.86495e-07 -5.17003e-07 2.83161e-08 -4.5633 -11.7554 -2.10792 4.97777 24.7414 -7.13386 1.49948 -9.05254 -3.45689 -1.29114e-06 -2.52699e-06 6.74489e-06  
-4.587691 148.181000 -13.169568 -0.912489 -0.323724 0.093925 0.461462 3.5905 0.865835 0.870965 7.18747 1.70772 0.870958 7.18747 1.70773 -5.17667 20.3467 -2.82539 6.47223 -7.9018 -6.12364 -15.9098 -0.169765 3.75504 -54.706 36.8205 -3.85138 13.2379 -9.43278 -32.3255 18.568 16.6549 3.02758 16.9067 -0.417434 -4.97666 53.6002 35.1949 6.82242 -15.426 -10.1943 29.6366 -14.1606 7.34051 -3.04219 3.81722 -17.1238 4.20968 -3.19647 30.3661 -2.23954 2.2398 -7.4236 -2.57614 8.86495e-07 -5.17003e-07 2.83161e-08 -3.68037 -15.2141 -2.13495 5.22562 26.5956 -7.02198 1.05474 -9.40171 -3.20815 -1.29114e-06 -2.52699e-06 6.74489e-06  
-4.953722 147.559000 -13.799306 -1.283445 1.621672 -1.169845 0.475775 4.15805 0.852442 0.892795 8.32263 1.6768 0.892818 8.32262 1.67679 -4.39907 18.7823 -3.25225 5.67874 -10.2193 -5.95347 -14.3946 -0.359526 4.72398 -55.7016 35.7919 -1.94272 13.3648 -9.25179 -31.5292 15.7913 17.0751 4.34595 16.2338 -0.537286 -5.56906 53.4203 34.4638 4.86734 -15.3339 -9.85023 28.9249 -14.8722 6.49195 -4.25297 5.19686 -20.8765 7.6319 -3.3618 32.7764 -0.0736888 1.88864 -8.04598 -1.23438 8.86495e-07 -5.17003e-07 2.83161e-08 -3.16409 -19.0235 -2.80272 5.20784 28.972 -6.20919 0.622377 -9.88062 -2.52866 -1.29114e-06 -2.52699e-06 6.74489e-06  
-5.244271 146.877000 -14.598794 -0.985799 3.949527 -2.545671 0.327995 4.74673 0.799231 0.592315 9.4975 1.57925 0.592345 9.4975 1.57924 -3.59395 17.3382 -3.34724 5.28111 -12.6781 -5.5213 -13.7563 -0.388472 4.91826 -55.8687 34.3782 1.50365 13.2755 -8.92843 -30.7591 12.1874 17.4776 6.25893 15.1434 -0.645171 -6.19545 53.3244 33.3525 2.48398 -14.9456 -9.14488 27.7298 -13.6955 5.59079 -4.23893 5.34482 -24.8754 9.95808 -2.23758 34.7332 1.13549 1.00089 -8.7983 -0.051156 8.86495e-07 -5.17003e-07 2.83161e-08 -3.25925 -23.5202 -3.67409 4.95593 31.6513 -5.17472 0.281798 -10.387 -1.76795 -1.29114e-06 -2.52699e-06 6.74489e-06  
-5.439260 145.741000 -15.401164 -0.754362 6.545593 -3.921684 0.195103 5.30187 0.742125 0.322932 10.6058 1.47565 0.322958 10.6058 1.47563 -2.36461 16.793 -3.27787 4.1732 -16.617 -4.70573 -12.7664 -0.389135 5.01156 -56.7594 33.205 5.81558 13.2234 -8.4417 -29.3848 9.29657 16.6704 7.469 14.1118 -0.721214 -6.71669 53.0985 32.3434 -0.937523 -14.8751 -8.74794 26.7695 -12.4733 5.11018 -5.92351 5.27971 -29.7223 8.87704 -1.61007 38.0614 2.53638 -0.0959689 -10.8359 1.06311 8.86495e-07 -5.17003e-07 2.83161e-08 -3.06467 -28.9761 -4.00244 4.65807 35.577 -4.49141 0.113832 -11.5096 -1.22257 -1.29114e-06 -2.52699e-06 6.74489e-06  
-5.569523 144.231000 -16.103830 -0.690568 8.940573 -5.122430 0.116263 5.98869 0.689117 0.160975 11.9783 1.37732 0.160982 11.9783 1.3773 -1.26897 14.6889 -3.20481 3.02683 -18.9963 -4.02352 -11.3433 -0.431726 5.39439 -58.3574 32.6069 10.4215 12.9653 -7.77005 -27.7735 6.85644 14.7979 8.66372 12.8285 -0.830471 -7.51082 52.9279 31.5345 -4.64882 -15.02 -8.36191 25.4667 -12.6131 3.97064 -5.44264 5.77387 -34.9016 6.26823 -3.16636 42.5396 5.89844 -0.717393 -13.3137 2.53981 8.86495e-07 -5.17003e-07 2.83161e-08 -2.44867 -34.5515 -3.94239 4.17395 40.2692 -3.98475 0.119165 -13.0788 -0.875732 -1.29114e-06 -2.52699e-06 6.74489e-06  
-5.626806 142.413000 -16.731531 -0.348819 11.360786 -6.118086 -0.0192316 6.6527 0.643935 -0.115536 13.305 1.30347 -0.115525 13.305 1.30346 -0.169534 13.4407 -3.02351 2.52761 -22.3497 -3.32418 -10.7975 -0.445463 5.54188 -59.4695 31.6108 15.8735 12.7635 -7.32066 -26.6844 5.11412 12.2567 9.42151 11.5811 -0.91906 -8.28071 53.0104 30.8233 -9.2482 -14.9794 -7.7988 23.9362 -11.7666 2.16536 -5.17892 6.27485 -40.4867 5.50256 -4.24008 47.6991 8.06195 -0.635185 -15.6841 3.33671 8.86495e-07 -5.17003e-07 2.83161e-08 -2.31084 -40.3704 -3.4578 4.59096 45.4115 -4.3761 0.0238118 -14.9116 -0.75378 -1.29114e-06 -2.52699e-06 6.74489e-06  
-5.704505 140.280000 -17.224145 -0.258973 13.865529 -6.692538 -0.0372662 7.24106 0.617533 -0.155802 14.4813 1.2551 -0.155818 14.4813 1.2551 0.648402 12.5342 -3.10657 1.86047 -25.9483 -3.05 -9.83924 -0.449634 5.69904 -61.2911 30.9783 21.3673 12.2723 -6.69997 -25.4984 3.58813 9.9917 10.3034 10.5587 -1.05687 -9.36471 52.8596 29.3282 -14.2552 -14.012 -6.9472 22.8765 -14.0001 -0.924188 -7.02846 7.44186 -46.3487 5.91866 -5.03407 53.2812 9.31502 -0.905917 -17.8243 3.53758 8.86495e-07 -5.17003e-07 2.83161e-08 -1.9024 -46.2914 -3.55234 4.49828 50.8703 -4.38888 0.0320626 -16.9709 -0.608456 -1.29114e-06 -2.52699e-06 6.74489e-06  
-5.756796 137.959000 -17.534122 -0.140444 16.184055 -7.132625 -0.0186007 7.82119 0.567664 -0.117951 15.6418 1.1543 -0.11794 15.6418 1.15429 0.79858 10.5847 -2.76596 1.49159 -27.9395 -2.6183 -8.57749 -0.528545 6.40866 -64.214 31.544 26.6737 11.8248 -5.94211 -23.5713 2.6897 6.58982 9.8916 9.33045 -1.11081 -10.1363 53.4462 27.8942 -19.5284 -13.4698 -6.29439 21.6229 -14.2374 -2.86982 -7.92169 8.93057 -51.9061 7.79065 -4.60726 58.8818 9.02733 -1.26041 -19.6415 3.34358 8.86495e-07 -5.17003e-07 2.83161e-08 -1.45127 -52.0347 -3.27428 4.67212 56.4572 -4.81013 0.126717 -19.1641 -0.601913 -1.29114e-06 -2.52699e-06 6.74489e-06  
-5.775433 135.499000 -17.653213 -0.012438 18.235468 -7.265303 0.0464249 8.37445 0.476669 0.0219069 16.7489 0.962045 0.0219193 16.749 0.962031 0.665812 8.9423 -2.47833 1.05847 -29.7469 -2.35853 -7.79626 -0.545222 6.68338 -67.095 30.8391 31.5309 11.6438 -5.30486 -21.2965 1.96577 4.70481 9.42617 7.96692 -1.14115 -10.9248 54.5597 27.687 -24.1583 -12.8459 -5.45667 19.6716 -14.4675 -4.17318 -8.54084 10.6802 -57.0551 10.1669 -3.89164 64.3755 8.21621 -1.47565 -21.3802 3.02946 8.86495e-07 -5.17003e-07 2.83161e-08 -1.27905 -57.3128 -3.29445 4.82585 62.0037 -5.25179 0.330245 -21.4956 -0.621316 -1.29114e-06 -2.52699e-06 6.74489e-06  
